<?xml version="1.0" encoding="UTF-8"?><svg id="Layer_2" xmlns="http://www.w3.org/2000/svg" viewBox="0 0 214.28 214.23"><defs><style>.cls-1{fill:#fff;}.cls-2{fill:none;stroke:#fff;stroke-linecap:round;stroke-linejoin:round;stroke-width:7.5px;}</style></defs><g id="Layer_1-2"><g><path class="cls-2" d="M65.29,176.2l6.16-5.57c3.17-2.87,7.42-4.25,11.68-3.8l52.37-2.47c1.31-.22,2.57-.69,3.69-1.4l33.98-21.26c2.91-1.82,3.48-5.83,1.19-8.39l-.11-.12c-1.67-1.86-4.36-2.41-6.63-1.35-7.98,3.75-25.7,12.08-25.7,12.08-3.22,1.51-6.83,1.98-10.33,1.34l-31.51-3.05c-2.58-.48-2.61-4.17-.03-4.68l26.8-3.99c2.66-.44,4.54-2.84,4.35-5.53h0c-.2-2.77-2.52-4.9-5.3-4.86l-30.38,.18c-7.53,.2-14.83,2.66-20.95,7.05l-31.75,23.3c-2.91,2.14-3.18,6.39-.56,8.87l14.2,13.5c2.46,2.34,6.31,2.39,8.83,.11Z"/><g><polygon class="cls-2" points="132.15 51.66 73.38 64.53 76.84 80.36 80.94 79.47 87.32 108.6 137.89 97.52 131.52 68.39 135.61 67.5 132.15 51.66"/><path class="cls-2" d="M92.12,42.77h.51c4.68,0,8.48,3.8,8.48,8.48v7.86c0,.63-.51,1.14-1.14,1.14h-7.86c-4.68,0-8.48-3.8-8.48-8.48v-.51c0-4.68,3.8-8.48,8.48-8.48Z" transform="translate(-8.88 20.95) rotate(-12.35)"/><path class="cls-2" d="M109.19,39.03h7.86c.63,0,1.14,.51,1.14,1.14v7.86c0,4.68-3.8,8.48-8.48,8.48h-.51c-4.68,0-8.48-3.8-8.48-8.48v-.51c0-4.68,3.8-8.48,8.48-8.48Z" transform="translate(226.57 71.02) rotate(167.65)"/><line class="cls-2" x1="133.5" y1="67.52" x2="81.1" y2="78.82"/><line class="cls-2" x1="134.41" y1="67.42" x2="78.69" y2="79.43"/><line class="cls-2" x1="112.85" y1="102.63" x2="101.02" y2="47.75"/></g><path class="cls-1" d="M101.5,214.23c-8.67,0-17.37-.62-25.94-1.85-20.9-2.67-38.67-10.39-51.33-22.3-.05-.05-.1-.1-.15-.15-11.91-12.64-19.62-30.4-22.31-51.38C.45,128.17-.14,117.59,.03,107.11c-.15-10.5,.53-21.09,2.01-31.48,2.68-20.91,10.39-38.67,22.3-51.33,.05-.05,.1-.1,.15-.15C37.13,12.24,54.9,4.53,75.86,1.85,86.24,.51,96.81-.08,107.27,.09c10.51-.33,21.11,.27,31.52,1.77,20.92,2.68,38.69,10.39,51.33,22.3,.05,.05,.1,.09,.14,.14,11.89,12.62,19.61,30.37,22.31,51.33h.01c1.5,10.41,2,21.01,1.51,31.52,.31,10.49-.28,21.07-1.77,31.46-1.29,10.09-3.76,19.52-7.34,27.98-3.8,8.98-8.84,16.84-14.97,23.35-.05,.05-.09,.1-.14,.14-3.69,3.47-7.85,6.63-12.36,9.37-11.01,6.68-24.13,11.03-39,12.94-10.38,1.33-20.96,1.92-31.43,1.76-1.86,.06-3.72,.09-5.58,.09Zm-72.49-29.07c11.59,10.87,28.01,17.94,47.48,20.43,10.1,1.45,20.32,2.02,30.46,1.7,.05,0,.11,0,.16,0,10.17,.16,20.44-.41,30.53-1.7,13.92-1.78,26.14-5.82,36.32-12,4.08-2.47,7.83-5.31,11.15-8.43,5.54-5.9,10.11-13.04,13.58-21.24,3.34-7.89,5.65-16.72,6.86-26.23,1.44-10.09,2.01-20.32,1.71-30.46,0-.09,0-.18,0-.27,.48-10.12,0-20.33-1.44-30.35l3.51-.5-3.54,.45c-2.51-19.5-9.57-35.91-20.44-47.48-11.57-10.87-27.99-17.93-47.48-20.43-10.09-1.45-20.33-2.02-30.46-1.71-.05,0-.11,0-.16,0-10.16-.16-20.43,.41-30.51,1.7-19.47,2.49-35.89,9.55-47.48,20.43-10.87,11.59-17.94,28.01-20.43,47.48-1.44,10.11-2.09,20.36-1.95,30.52v.11c-.17,10.17,.41,20.43,1.7,30.51,2.49,19.49,9.55,35.9,20.43,47.48Z"/></g></g></svg>